# xmcd
#
# Track frame offsets:
#	150
#	12840
#	22515
#	33313
#	43435
#	56390
#	65966
#	76886
#	86719
#	97442
#	108785
#	119905
#	130044
#	140238
#	151862
#	158816
#	171338
#	182629
#	194073
#	203292
#
# Disc length: 2847 seconds
#
# Revision: 1
# Processed by: cddbd v1.5.1PL0 Copyright (c) Steve Scherf et al.
# Submitted via: EasyCDDAExtractor 5.0.6
#
DISCID=170b1d14
DTITLE=The Chordettes - Born to Be With You
DYEAR=1900
DGENRE=Blues
TTITLE0=Born to Be With You
TTITLE1=Lollipop
TTITLE2=Mister Sandman
TTITLE3=Eddie My Love
TTITLE4=True Love Goes On And On
TTITLE5=Just Between You and Me
TTITLE6=Lonely Lips
TTITLE7=Photographs
TTITLE8=In the Deep Blue Sea
TTITLE9=No Wheels
TTITLE10=Lay Down Your Arms
TTITLE11=A Girl's Work is Never Done
TTITLE12=Humming Bird
TTITLE13=Lonely Boy
TTITLE14=Tall Paul
TTITLE15=To Know Him Is To Love Him
TTITLE16=Baby Come A Back A*
TTITLE17=No Other Arms, No Other Lips
TTITLE18=Love is a Two Way Street
TTITLE19=Teenage Goodnight
EXTD=
EXTT0=
EXTT1=
EXTT2=
EXTT3=
EXTT4=
EXTT5=
EXTT6=
EXTT7=
EXTT8=
EXTT9=
EXTT10=
EXTT11=
EXTT12=
EXTT13=
EXTT14=
EXTT15=
EXTT16=
EXTT17=
EXTT18=
EXTT19=
PLAYORDER=
